<svg width="453" height="882" viewBox="0 0 453 882" fill="none" xmlns="http://www.w3.org/2000/svg">
<path d="M-230.975 345.373C-228.091 237.303 -108.587 44.1334 69.803 110.937C122.609 136.462 215.283 232.387 116.245 379.162C-7.9163 563.17 -76.6974 729.595 3.12195 802.197C32.3032 828.739 99.9946 829.615 127.085 782.406C148.758 744.64 187.08 654.465 203.532 614.099C216.993 581.072 295.101 544.177 335.027 605.834" stroke="url(#paint0_linear_82_231)" stroke-width="14" stroke-linecap="round"/>
<path d="M311.801 624.503C307.433 615.197 320.745 601.969 327.947 596.519C334.844 590.798 343.651 588.705 347.193 588.374C348.454 588.226 351.511 588.122 353.647 588.894C355.784 589.665 358.653 592.312 359.82 593.538L404.035 665.062C404.069 666.081 403.809 668.362 402.491 669.335C401.173 670.309 399.063 669.909 398.173 669.587L354.863 612.279C353.973 611.957 351.863 611.558 350.545 612.531C349.227 613.504 348.482 616.013 348.274 617.146L390.279 676.398C390.264 676.996 389.866 678.543 388.394 679.944C386.922 681.345 384.675 680.211 383.735 679.469L338.926 624.638C338.035 624.317 335.925 623.917 334.608 624.89C333.29 625.864 331.833 628.115 331.269 629.119L374.92 687.155C375.133 688.238 375.229 690.648 373.911 691.621C372.593 692.594 369.999 692.422 368.866 692.214C351.664 673.522 316.169 633.81 311.801 624.503Z" fill="url(#paint1_linear_82_231)"/>
<defs>
<linearGradient id="paint0_linear_82_231" x1="23.8046" y1="45.7708" x2="124.782" y2="823.156" gradientUnits="userSpaceOnUse">
<stop stop-color="#e8e8ed"/>
<stop offset="1" stop-color="#e8e8ed" stop-opacity="0.56"/>
</linearGradient>
<linearGradient id="paint1_linear_82_231" x1="326.685" y1="581.513" x2="386.81" y2="702.945" gradientUnits="userSpaceOnUse">
<stop stop-color="#e8e8ed"/>
<stop offset="1" stop-color="#e8e8ed" stop-opacity="0.76"/>
</linearGradient>
</defs>
</svg>
